Coordinates
version=1
nRows=22
nColumns=24
inDegrees=yes

Units are S.I. units (second, meters, Newtons, ...)
Angles are in degrees.

endheader
time	pelvis_tilt	pelvis_list	pelvis_rotation	pelvis_tx	pelvis_ty	pelvis_tz	hip_flexion_r	hip_adduction_r	hip_rotation_r	knee_angle_r	ankle_angle_r	subtalar_angle_r	mtp_angle_r	hip_flexion_l	hip_adduction_l	hip_rotation_l	knee_angle_l	ankle_angle_l	subtalar_angle_l	mtp_angle_l	lumbar_extension	lumbar_bending	lumbar_rotation
      5.47000000	     -8.65984624	     -8.26808581	      2.13725017	     -0.79873718	     -0.01657526	      2.08169636	      4.83812234	     14.06479121	     -9.95282888	     -7.36179295	      3.81110981	     -3.04179628	     11.82140970	     35.43171435	     -7.22927850	      1.56068883	    -46.33940444	     -3.14679744	     -7.09084627	     34.76039878	      4.98379793	      7.61140903	     -2.37214887
      5.48000000	     -8.74009662	     -7.98632194	      2.08228495	     -0.78783318	     -0.01732617	      2.08209788	      3.94251259	     13.85089529	     -9.99492205	     -6.96593212	      4.27831753	     -2.71488301	     12.07153247	     36.00784651	     -6.86119069	      1.05433994	    -43.66263353	     -2.80388341	     -6.43808949	     34.32463313	      4.94068202	      7.30163573	     -2.10299725
      5.49000000	     -8.75612063	     -7.71082042	      2.18435156	     -0.77682798	     -0.01820412	      2.08217656	      2.98160689	     13.62637418	    -10.16345837	     -6.54754906	      4.73299724	     -2.44925084	     12.51306781	     36.43497031	     -6.41103272	      0.59378775	    -40.82855910	     -2.55196964	     -5.65949815	     33.69953491	      4.85618417	      6.99201944	     -2.00242713
      5.50000000	     -8.95408579	     -7.51428139	      2.20105558	     -0.76581988	     -0.01943577	      2.08230169	      2.26781866	     13.48427108	    -10.29296070	     -6.23091607	      5.19678422	     -2.21983340	     12.68568122	     36.97606318	     -6.10796128	     -0.02633327	    -37.88437539	     -2.39340149	     -4.58115813	     33.60127754	      4.95672908	      6.76862813	     -1.86117269
      5.51000000	     -9.03505531	     -7.28142376	      2.29500071	     -0.75474173	     -0.02061543	      2.08221183	      1.43801000	     13.29425409	    -10.53059813	     -5.93541245	      5.68127007	     -1.92285827	     12.82201365	     37.25642092	     -5.71982505	     -0.67101713	    -34.77391080	     -2.41775266	     -3.43307418	     33.52080607	      4.93699459	      6.50937198	     -1.77756522
      5.52000000	     -9.07844064	     -7.05802620	      2.42673963	     -0.74361164	     -0.02183350	      2.08197637	      0.59608467	     13.11085620	    -10.85836555	     -5.68848289	      6.15253838	     -1.60050926	     12.87634261	     37.38716083	     -5.29943930	     -1.30893937	    -31.57504974	     -2.58889739	     -2.22488501	     33.42936702	      4.87879530	      6.26303077	     -1.74130926
      5.53000000	     -9.10507572	     -6.85067708	      2.57392208	     -0.73241512	     -0.02310013	      2.08160606	     -0.21654322	     12.93335176	    -11.26479415	     -5.53719137	      6.62984226	     -1.21870787	     12.84556858	     37.40435970	     -4.86078474	     -1.94181987	    -28.35026124	     -2.86272135	     -1.01269053	     33.26440895	      4.80408646	      6.03826856	     -1.73120785
      5.54000000	     -9.08828573	     -6.64133682	      2.72612182	     -0.72109745	     -0.02436274	      2.08111163	     -1.02504777	     12.73594712	    -11.76379585	     -5.50172682	      7.13252007	     -0.71955798	     12.74185616	     37.28594489	     -4.38859611	     -2.53181037	    -25.16077672	     -3.18587713	      0.11519130	     32.94673306	      4.68965589	      5.81948671	     -1.73113308
      5.55000000	     -9.03937842	     -6.42473426	      2.86972083	     -0.70962615	     -0.02562412	      2.08050361	     -1.81267384	     12.50348206	    -12.32807897	     -5.60225970	      7.67059575	     -0.07909037	     12.57853690	     37.06152051	     -3.88965636	     -3.06435213	    -22.07270305	     -3.48180208	      1.13797043	     32.39565740	      4.55105702	      5.60178498	     -1.72588460
      5.56000000	     -8.98672132	     -6.19440326	      2.97948396	     -0.69799641	     -0.02689972	      2.07981866	     -2.53356354	     12.21779555	    -12.91040056	     -5.87576597	      8.23584036	      0.68918387	     12.40141500	     36.78762009	     -3.38548166	     -3.58398368	    -19.16449597	     -3.69880328	      2.09479639	     31.61658156	      4.41579630	      5.37870809	     -1.69884807
      5.57000000	     -8.90800891	     -5.92572043	      3.10038410	     -0.68616123	     -0.02814291	      2.07897262	     -3.22959661	     11.85655043	    -13.40080087	     -6.29980331	      8.85770298	      1.44852979	     11.48788745	     36.46196061	     -2.80877527	     -3.92315189	    -16.56213822	     -3.55993300	      2.99744297	     28.99529447	      4.27428934	      5.12274029	     -1.71087146
      5.58000000	     -8.95436198	     -5.69840324	      3.09564279	     -0.67417053	     -0.02951649	      2.07825563	     -3.70758916	     11.48051771	    -13.89997338	     -6.90762098	      9.35741743	      2.37689508	     11.49679952	     36.26392845	     -2.38307076	     -4.50830575	    -14.19619484	     -3.55595354	      3.98797835	     28.66008259	      4.27257825	      4.90827107	     -1.61710805
      5.59000000	     -8.92348204	     -5.39889384	      3.07372427	     -0.66194028	     -0.03073414	      2.07743078	     -4.23668784	     10.98137304	    -14.32767659	     -7.62747801	      9.81379700	      3.38218525	     11.47574217	     35.93698547	     -1.88990016	     -4.99509984	    -12.11980388	     -3.47538142	      4.75665953	     28.20078260	      4.20599851	      4.63011163	     -1.52132721
      5.60000000	     -8.78917165	     -5.07060167	      3.12469962	     -0.64939448	     -0.03184409	      2.07649143	     -4.87787480	     10.42991264	    -14.73863928	     -8.38679621	     10.18368389	      4.42573558	     11.28068865	     35.50329399	     -1.33805334	     -5.31249127	    -10.45679487	     -3.17162763	      5.40162475	     27.45467714	      4.07302590	      4.30454481	     -1.52821266
      5.61000000	     -8.84444450	     -4.81390564	      2.95721036	     -0.63670581	     -0.03305896	      2.07574526	     -5.23626699	      9.89691789	    -14.86172119	     -9.31622192	     10.39451714	      5.39202724	     11.18829828	     35.31707337	     -0.98204811	     -5.77080966	     -9.29091143	     -2.78594788	      5.88135983	     27.01028658	      4.14754064	      4.06778675	     -1.36798703
      5.62000000	     -8.81604240	     -4.55016486	      2.84304114	     -0.62374160	     -0.03423713	      2.07499115	     -5.66270264	      9.34266548	    -14.97457478	    -10.30965097	     10.53649831	      6.34457329	     11.12636496	     35.09928636	     -0.61573232	     -6.07433215	     -8.67599089	     -2.25276444	      6.13412672	     26.55288680	      4.17077523	      3.79824305	     -1.24453652
      5.63000000	     -8.86191678	     -4.29232203	      2.69697744	     -0.61041049	     -0.03545721	      2.07435771	     -5.97991033	      8.78728670	    -14.93265587	    -11.36746280	     10.46928148	      7.07434378	     11.15791877	     35.00463546	     -0.29532245	     -6.32502123	     -8.59115839	     -1.77226902	      6.09306585	     26.25940057	      4.32627529	      3.50984881	     -1.15778163
      5.64000000	     -8.65171340	     -4.01798056	      2.61614833	     -0.59684632	     -0.03647663	      2.07369620	     -6.55820294	      8.20219032	    -14.98804355	    -12.46075486	     10.24503105	      7.95886035	     11.57007372	     34.71532690	      0.03937826	     -6.31222792	     -9.15330649	     -1.00575838	      5.79360463	     24.38107623	      4.23042784	      3.18246283	     -1.10622278
      5.65000000	     -8.73835850	     -3.78305473	      2.43420144	     -0.58286372	     -0.03778966	      2.07315234	     -6.72729809	      7.61678698	    -14.92566548	    -13.74533411	      9.92014949	      8.76930874	     11.88785624	     34.75783166	      0.26853118	     -6.38641367	    -10.06721864	     -0.84227722	      5.10069979	     24.10820506	      4.52197420	      2.88002845	     -1.07970858
      5.66000000	     -8.63503483	     -3.49254019	      2.32380704	     -0.56876485	     -0.03887346	      2.07248569	     -7.04434946	      6.94940918	    -15.04349104	    -15.08132197	      9.16945737	      9.56204838	     14.07035345	     34.60319417	      0.57262708	     -6.25498932	    -11.32800055	     -0.89423035	      4.04144950	     21.85261673	      4.61338405	      2.51270301	     -1.07154022
      5.67000000	     -8.77989362	     -3.15839873	      2.15801177	     -0.55440814	     -0.04006244	      2.07183529	     -6.96072808	      6.20154365	    -15.01355686	    -16.70101090	      8.52834960	     10.27161945	     14.31012825	     34.65878647	      0.87752170	     -6.22406313	    -12.57878883	     -1.99512891	      2.44007119	     21.26675690	      5.00790130	      2.08510497	     -1.02713139
      5.68000000	     -8.77763241	     -2.70988181	      2.37672518	     -0.54000778	     -0.04095560	      2.07061770	     -6.99665041	      5.29089430	    -15.68451397	    -18.30937908	      7.23516431	     11.17120270	     17.68104674	     34.60522600	      1.50334238	     -5.81068805	    -14.05968883	     -2.80420746	      0.98719603	     15.99460292	      5.24604415	      1.49104644	     -1.40031422
